# xmcd
#
# Track frame offsets:
#	150
#	13400
#	27810
#	41357
#	55971
#	68712
#	79313
#	90531
#	103325
#	118966
#	133573
#	147252
#
# Disc length: 2162 seconds
#
# Revision: 0
# Processed by: cddbd v1.5.2PL0 Copyright (c) Steve Scherf et al.
# Submitted via: dBpowerAMP V4.0
#
DISCID=a808700c
DTITLE=El Chapo - Te Va A Gustar - El Chapo - Te Va A Gustar
DYEAR=1900
DGENRE=Norteno
TTITLE0=01 - Esa Muchacha Me Gusta
TTITLE1=02 - De Cristal o De Papel
TTITLE2=03 - Una Escena De Amor
TTITLE3=04 - A Ti Si Puedo Decirte
TTITLE4=05 - Cierra los Ojos
TTITLE5=06 - Arriba De Ciento Veinte
TTITLE6=07 - Te Doy 8 Dias
TTITLE7=08 - La Verdad
TTITLE8=09 - Divorcio
TTITLE9=10 - Te Va A Gustar
TTITLE10=11 - Tu Vas A Llorar
TTITLE11=12 - Te Extrano
EXTD=El Chapo - Te Va A Gustar
EXTT0=
EXTT1=
EXTT2=
EXTT3=
EXTT4=
EXTT5=
EXTT6=
EXTT7=
EXTT8=
EXTT9=
EXTT10=
EXTT11=
PLAYORDER=
